<?xml version="1.0" encoding="utf-8"?>
<!-- Generator: Adobe Illustrator 22.1.0, SVG Export Plug-In . SVG Version: 6.00 Build 0)  -->
<svg version="1.1" id="Warstwa_1" xmlns="http://www.w3.org/2000/svg" xmlns:xlink="http://www.w3.org/1999/xlink" x="0px" y="0px"
	 viewBox="0 0 707.1 200" style="enable-background:new 0 0 707.1 200;" xml:space="preserve">
<style type="text/css">
	.st0{fill:#3E3A39;}
	.st1{fill:url(#SVGID_1_);}
	.st2{opacity:0.1;fill:#231815;enable-background:new    ;}
	.st3{opacity:0.3;fill:#231815;enable-background:new    ;}
</style>
<g>
	<g>
		<path class="st0" d="M287.9,73.6c-5.4-3.2-11.5-4.8-17.8-4.8c-19.9,0-33.1,14.3-33.1,33.7c0,20.2,14.6,33.7,32.5,33.7
			c6.2,0,14.4-1.6,18.8-4.2l0.7,12c-6.5,2.7-14.6,3.1-19.6,3.1c-27.3,0-45.4-17.5-45.4-44.9c0-26.5,19.3-44.2,45.5-44.2
			c6.7,0,13.2,1,19.4,3.7L287.9,73.6z"/>
		<path class="st0" d="M307,87c5.8-3.5,12.7-5.9,20.7-5.9c18,0,25.3,8.9,25.3,26v26c0,7.2,0.2,10.5,0.5,12.3h-10.9v-8.1h-0.2
			c-2.7,3.8-8.9,9.6-19.5,9.6c-13.6,0-23.1-5.9-23.1-19.6c0-15.8,17.3-20.7,29.3-20.7c4.6,0,7.8,0,12.3,0.2
			c0-10.9-3.9-16.4-15.6-16.4c-6.5,0-13.6,2.5-18.3,6.4L307,87z M341.4,115.6c-2.5,0-4.9-0.2-7.4-0.2c-6.3,0-21.8,1-21.8,12.1
			c0,6.7,6.4,10.2,11.7,10.2c11.5,0,17.5-7.2,17.5-16.5L341.4,115.6L341.4,115.6z"/>
		<path class="st0" d="M373.9,82.6h10.9v9.8h0.2c3.1-6.5,9.8-11.2,16.4-11.2c3.5,0,5.2,0.4,7.7,0.9v10.4c-2.1-0.9-4.4-1.1-6.4-1.1
			c-10.4,0-17.2,9.9-17.2,25.7v28.6h-11.6V82.6z"/>
		<path class="st0" d="M423.5,59.4h23.3c17.9,0,30.2,5.8,30.2,21.7c0,11.8-6.9,17.8-17.8,20.5v0.2c11.7,1,20,8.6,20,20.7
			c0,18.5-15.3,23-32.8,23h-23L423.5,59.4L423.5,59.4z M435.8,96.2h6.8c12,0,22.1-1.1,22.1-13.8c0-10.2-8.8-12.8-15.9-12.8h-13V96.2
			z M435.8,135.4h9.3c11.1,0,21.1-2.3,21.1-13.9c0-13.3-11.7-15.2-22.3-15.2h-8v29.1H435.8z"/>
		<path class="st0" d="M491.4,53H503v92.6h-11.6V53z"/>
		<path class="st0" d="M550.8,81.1c19.1,0,32,13.8,32,33c0,18-13.1,33-32,33c-19,0-32.1-14.9-32.1-33
			C518.8,94.9,531.6,81.1,550.8,81.1z M550.8,137.6c13.6,0,19.6-12.3,19.6-23.6c0-12-7.3-23.6-19.6-23.6
			c-12.5,0-19.7,11.6-19.7,23.6C531.1,125.3,537.1,137.6,550.8,137.6z"/>
		<path class="st0" d="M637.1,93.2c-4.4-1.9-8.9-2.7-12.6-2.7c-13,0-20.2,11.6-20.2,23.6c0,11.2,6,23.6,21,23.6
			c3.9,0,8.9-1.2,12.5-3.6l0.9,10.4c-4.8,2.2-10.4,2.6-14.6,2.6c-19,0-32.1-14.9-32.1-33c0-19.1,12.8-33,32.1-33
			c4.7,0,10.7,1.1,14.1,2.5L637.1,93.2z"/>
		<path class="st0" d="M650.7,53h11.6v55.2l25.3-25.5h15.8l-29.3,27.9l33,35.1h-16.7l-28.1-32.3v32.3h-11.6V53z"/>
	</g>
	<g>
		<g>
			
				<radialGradient id="SVGID_1_" cx="32.3471" cy="142.6758" r="165.5162" gradientTransform="matrix(1 0 0 -1 0 199.89)" gradientUnits="userSpaceOnUse">
				<stop  offset="0" style="stop-color:#2CA6E0"/>
				<stop  offset="0.4788" style="stop-color:#00A199"/>
				<stop  offset="1" style="stop-color:#5F1985"/>
			</radialGradient>
			<path class="st1" d="M135.8,21.6H45.3L0,100l45.3,78.4h90.5l45.3-78.4L135.8,21.6z M71.8,132.5h44.4c6.6,0,11.9,5.3,11.9,11.9
				c0,6.6-5.3,11.9-11.9,11.9H64.9c-4.3,0-8.2-2.3-10.3-6L28.9,106c-2.1-3.7-2.1-8.2,0-11.9l25.6-44.4c2.1-3.7,6.1-6,10.3-6h51.3
				c6.6,0,11.9,5.3,11.9,11.9s-5.3,11.9-11.9,11.9H71.8L53,100L71.8,132.5z"/>
		</g>
		<g>
			<polygon class="st2" points="53,100 90.5,100 109.3,67.5 71.8,67.5 			"/>
			<path class="st2" d="M28.9,94l25.6-44.4c2.1-3.7,6.1-6,10.3-6h51.3c2.2,0,4.2,0.6,5.9,1.6l13.7-23.7H45.3L0,100h27.3
				C27.3,97.9,27.9,95.9,28.9,94z"/>
			<path class="st3" d="M116.2,156.3H64.9c-4.3,0-8.2-2.3-10.3-6L28.9,106c-1.1-1.8-1.6-3.9-1.6-6H0l45.3,78.4h90.5l-13.7-23.7
				C120.4,155.7,118.4,156.3,116.2,156.3z"/>
			<polygon class="st3" points="53,100 71.8,132.5 109.3,132.5 90.5,100 			"/>
		</g>
	</g>
</g>
</svg>
